<?xml version="1.0" encoding="utf-8"?>
<!-- Generator: Adobe Illustrator 25.3.1, SVG Export Plug-In . SVG Version: 6.00 Build 0)  -->
<svg version="1.1" id="Слой_1" xmlns="http://www.w3.org/2000/svg" xmlns:xlink="http://www.w3.org/1999/xlink" x="0px" y="0px"
	 viewBox="0 0 128 40" style="enable-background:new 0 0 128 40;" xml:space="preserve">
<style type="text/css">
	.st0{fill:#0054FF;}
	.st1{fill:#0B845F;}
	.st2{fill:#F7E36F;}
	.st3{fill:#FF0050;}
</style>
<path class="st0" d="M14.9,29.9c-4.9,0.6-9-3.5-8.4-8.3c0.4-3.3,3.1-6,6.4-6.4c4.9-0.6,9,3.5,8.4,8.3C20.9,26.8,18.3,29.5,14.9,29.9
	 M15.4,8.7C6.5,7.8-0.8,15.2,0.1,24c0.7,6.5,6,11.8,12.5,12.4c8.8,0.9,16.2-6.5,15.3-15.3C27.2,14.6,21.9,9.3,15.4,8.7"/>
<path class="st0" d="M35.3,9.2c-2,0-3.6,1.8-3.2,3.9c0.3,1.5,1.8,2.6,3.3,2.6h9.1L30.4,34.4c-0.5,0.6,0,1.5,0.7,1.5h22.2
	c1.6,0,3-1.1,3.3-2.6c0.4-2.1-1.2-3.9-3.2-3.9H42.3l14.1-18.7c0.5-0.6,0-1.5-0.8-1.5L35.3,9.2z"/>
<path class="st0" d="M124,9.1c-1.5,0.3-2.5,1.7-2.5,3.3v10.8l-17.7-14c-0.6-0.5-1.5,0-1.5,0.7v22.4c0,1.5,1,2.9,2.6,3.3
	c2.1,0.4,4-1.2,4-3.2V21.5l17.7,14c0.6,0.5,1.5,0,1.5-0.7V12.3C128,10.3,126.1,8.7,124,9.1"/>
<path class="st0" d="M78.1,8.5c-10.8,0-19.5,6.3-19.5,14s8.8,13.9,19.6,13.9s19.5-6.3,19.5-14C97.6,14.7,88.9,8.5,78.1,8.5 M78.1,15
	c7.5,0,13,3.9,13,7.4s-5.6,7.5-13,7.5c-7.5,0-13-3.9-13-7.4C65.1,18.9,70.7,15,78.1,15"/>
<g>
	<g>
		<g>
			<g>
				<path class="st1" d="M91.9,9.1l-0.7,9.3c-0.1,1-0.4,2-0.9,2.9L83.4,34l-11.9-0.5l9.7-17.2c0.5-0.9,1.2-1.7,2.1-2.3L91,8.7
					C91.4,8.3,91.9,8.6,91.9,9.1"/>
				<path class="st2" d="M83.3,13.9L91,8.6c0.4-0.3,1,0,0.9,0.5l-0.7,9.3c-0.1,1-0.4,2-0.9,2.9l-0.1,0.2c0,0-0.1,0-0.1-0.1
					c-0.4-0.2-0.8-0.6-0.9-1c-1,0.7-2.4,0.9-3.5,0.2c-1.2-0.7-1.8-2-1.6-3.3c-0.5,0.1-1.1,0.1-1.7-0.2c-0.4-0.2-0.8-0.6-0.9-1
					C81.8,15.2,82.5,14.5,83.3,13.9"/>
			</g>
			<path class="st1" d="M89.5,12c-0.6-0.3-1.1-0.9-1.4-1.4l2.8-1.9c0.4-0.3,1,0,0.9,0.5l-0.3,3.2C90.9,12.4,90.2,12.3,89.5,12"/>
		</g>
		<path class="st3" d="M78.3,4l1.6,9.2c0.2,1,0.1,2-0.1,3L75,34.5l-9.8-4l4.5-17c0.3-1,0.8-2,1.5-2.8l6.1-7.1
			C77.6,3.3,78.2,3.5,78.3,4"/>
		<path class="st2" d="M71.1,10.8l6.1-7.1c0.3-0.4,1-0.2,1,0.3l1.6,9.2c0.2,1,0.1,2-0.1,3l-0.1,0.2h-0.1c-0.5-0.1-0.9-0.4-1.2-0.8
			c-0.8,1-2.1,1.4-3.4,1.1c-1.4-0.4-2.3-1.5-2.4-2.8c-0.5,0.3-1.1,0.4-1.7,0.2c-0.5-0.1-0.9-0.4-1.2-0.8
			C70,12.4,70.5,11.5,71.1,10.8"/>
	</g>
	<path class="st3" d="M76.7,7.3C76,7.1,75.5,6.7,75,6.2l2.2-2.5c0.3-0.4,1-0.2,1,0.3l0.5,3.2C78.2,7.4,77.5,7.5,76.7,7.3"/>
</g>
<path class="st0" d="M90.8,23.9c-1.3,3-6.3,5.9-12.7,5.9c-6.4,0-11.4-2.9-12.7-5.9h-6.7c1,7,9.4,12.5,19.5,12.4
	c10.1,0,18.3-5.5,19.4-12.4H90.8z"/>
</svg>
