<svg xmlns="http://www.w3.org/2000/svg" width="40" height="40" viewBox="0 0 40 40">
    <path fill="#005BFF" fill-rule="nonzero" d="M11.13 21.507A10.95 10.95 0 0 1 9 15C9 8.925 13.925 4 20 4a10.952 10.952 0 0 1 6.644 2.232 1 1 0 0 1-1.21 1.594A8.952 8.952 0 0 0 20 6a9 9 0 1 0 9.001 9c0-1.017-.169-2.01-.493-2.946l-8.516 6.189L15.4 14.8a1 1 0 0 1 1.2-1.6l3.41 2.557 9.29-6.752.529 1.05A10.957 10.957 0 0 1 31 15c0 5.946-4.718 10.79-10.615 10.993l2.125 6.375L25.667 30h3.946l-1.562-4.684a1 1 0 1 1 1.898-.632L32.387 32h-6.054l-4.843 3.632-3.258-9.773a10.962 10.962 0 0 1-5.575-2.668L10.387 30h3.946l4.267 3.2a1 1 0 0 1-1.2 1.6L13.667 32H7.613l3.438-10.316c.021-.063.048-.122.079-.177z"/>
</svg>
