<svg xmlns="http://www.w3.org/2000/svg" width="40" height="40" viewBox="0 0 40 40">
    <path fill="#005BFF" fill-rule="nonzero" d="M16.414 25l1.293 1.293a1 1 0 0 1-1.414 1.414L12.586 24l3.707-3.707a1 1 0 0 1 1.414 1.414L16.414 23h7.648a1 1 0 0 0 1-1v-6.938a1 1 0 0 0-1-1H16a1 1 0 0 0-1 1V18a1 1 0 0 1-2 0v-2.938a3 3 0 0 1 3-3h8.063a3 3 0 0 1 3 3V22a3 3 0 0 1-3 3h-7.649zM9 12H8v8.322a11 11 0 0 0 6.39 9.988L20 32.899l5.61-2.59A11 11 0 0 0 32 20.323V15a1 1 0 0 1 2 0v5.322a13 13 0 0 1-7.552 11.803L20 35.101l-6.448-2.976A13 13 0 0 1 6 20.322V10h3a1 1 0 0 1 0 2zm23-2V8H7a1 1 0 1 1 0-2h27v6h-3a1 1 0 0 1 0-2h1z"/>
</svg>
